<svg width="396" height="150" viewBox="0 0 396 150" fill="none" xmlns="http://www.w3.org/2000/svg">
<circle cx="75" cy="75" r="75" fill="#2BF162"/>
<path d="M45.216 97.768C40.7787 97.768 36.896 96.7867 33.568 94.824C30.24 92.8613 27.6373 90.152 25.76 86.696C23.8827 83.1973 22.944 79.1653 22.944 74.6C22.944 70.0347 23.8827 66.024 25.76 62.568C27.6373 59.0693 30.24 56.3387 33.568 54.376C36.896 52.4133 40.7787 51.432 45.216 51.432C49.6533 51.432 53.536 52.4133 56.864 54.376C60.192 56.3387 62.7733 59.0693 64.608 62.568C66.4853 66.024 67.424 70.0347 67.424 74.6C67.424 79.1653 66.4853 83.1973 64.608 86.696C62.7733 90.152 60.192 92.8613 56.864 94.824C53.536 96.7867 49.6533 97.768 45.216 97.768ZM45.216 91.688C48.288 91.688 50.9547 91.0053 53.216 89.64C55.52 88.2747 57.312 86.312 58.592 83.752C59.872 81.192 60.512 78.1413 60.512 74.6C60.512 71.0587 59.872 68.008 58.592 65.448C57.312 62.888 55.52 60.9253 53.216 59.56C50.9547 58.1947 48.288 57.512 45.216 57.512C42.144 57.512 39.456 58.1947 37.152 59.56C34.848 60.9253 33.056 62.888 31.776 65.448C30.5387 68.008 29.92 71.0587 29.92 74.6C29.92 78.1413 30.5387 81.192 31.776 83.752C33.056 86.312 34.848 88.2747 37.152 89.64C39.456 91.0053 42.144 91.688 45.216 91.688ZM74.7255 97V65.256H80.7415L81.2535 70.824C82.2348 68.8613 83.6642 67.3253 85.5415 66.216C87.4615 65.064 89.6588 64.488 92.1335 64.488C95.9735 64.488 98.9815 65.6827 101.158 68.072C103.376 70.4613 104.486 74.024 104.486 78.76V97H97.7655V79.464C97.7655 73.32 95.2482 70.248 90.2135 70.248C87.6962 70.248 85.6055 71.144 83.9415 72.936C82.3202 74.728 81.5095 77.288 81.5095 80.616V97H74.7255ZM130.332 97.768C127.857 97.768 125.66 97.2773 123.74 96.296C121.862 95.3147 120.369 93.928 119.26 92.136L118.556 97H112.476V50.92H119.26V70.184C120.284 68.6907 121.692 67.368 123.484 66.216C125.276 65.064 127.58 64.488 130.396 64.488C133.468 64.488 136.177 65.2133 138.524 66.664C140.87 68.1147 142.705 70.0987 144.028 72.616C145.393 75.1333 146.076 77.992 146.076 81.192C146.076 84.392 145.393 87.2507 144.028 89.768C142.705 92.2427 140.87 94.2053 138.524 95.656C136.177 97.064 133.446 97.768 130.332 97.768ZM129.18 91.88C132.081 91.88 134.47 90.8987 136.348 88.936C138.225 86.9307 139.164 84.328 139.164 81.128C139.164 79.0373 138.737 77.1813 137.884 75.56C137.03 73.9387 135.857 72.68 134.364 71.784C132.87 70.8453 131.142 70.376 129.18 70.376C126.278 70.376 123.889 71.3787 122.012 73.384C120.177 75.3893 119.26 77.9707 119.26 81.128C119.26 84.328 120.177 86.9307 122.012 88.936C123.889 90.8987 126.278 91.88 129.18 91.88ZM168.261 97.768C165.232 97.768 162.501 97.0853 160.069 95.72C157.68 94.312 155.781 92.3707 154.373 89.896C152.965 87.3787 152.261 84.456 152.261 81.128C152.261 77.8 152.965 74.8987 154.373 72.424C155.824 69.9067 157.765 67.9653 160.197 66.6C162.629 65.192 165.338 64.488 168.325 64.488C171.354 64.488 174.064 65.192 176.453 66.6C178.885 67.9653 180.805 69.9067 182.213 72.424C183.664 74.8987 184.389 77.8 184.389 81.128C184.389 84.456 183.664 87.3787 182.213 89.896C180.805 92.3707 178.885 94.312 176.453 95.72C174.021 97.0853 171.29 97.768 168.261 97.768ZM168.261 91.944C169.882 91.944 171.376 91.5387 172.741 90.728C174.149 89.9173 175.28 88.7227 176.133 87.144C176.986 85.5227 177.413 83.5173 177.413 81.128C177.413 78.7387 176.986 76.7547 176.133 75.176C175.322 73.5547 174.213 72.3387 172.805 71.528C171.44 70.7173 169.946 70.312 168.325 70.312C166.704 70.312 165.189 70.7173 163.781 71.528C162.416 72.3387 161.306 73.5547 160.453 75.176C159.6 76.7547 159.173 78.7387 159.173 81.128C159.173 83.5173 159.6 85.5227 160.453 87.144C161.306 88.7227 162.416 89.9173 163.781 90.728C165.146 91.5387 166.64 91.944 168.261 91.944ZM202.478 97.768C199.79 97.768 197.571 97.32 195.822 96.424C194.072 95.528 192.771 94.3547 191.918 92.904C191.064 91.4107 190.638 89.7893 190.638 88.04C190.638 84.968 191.832 82.536 194.222 80.744C196.611 78.952 200.024 78.056 204.462 78.056H212.782V77.48C212.782 75.0053 212.099 73.1493 210.734 71.912C209.411 70.6747 207.683 70.056 205.55 70.056C203.672 70.056 202.03 70.5253 200.622 71.464C199.256 72.36 198.424 73.704 198.126 75.496H191.342C191.555 73.192 192.323 71.2293 193.646 69.608C195.011 67.944 196.718 66.6853 198.766 65.832C200.856 64.936 203.139 64.488 205.614 64.488C210.051 64.488 213.486 65.6613 215.918 68.008C218.35 70.312 219.566 73.4693 219.566 77.48V97H213.678L213.102 91.56C212.206 93.3093 210.904 94.7813 209.198 95.976C207.491 97.1707 205.251 97.768 202.478 97.768ZM203.822 92.264C205.656 92.264 207.192 91.8373 208.43 90.984C209.71 90.088 210.691 88.9147 211.374 87.464C212.099 86.0133 212.547 84.4133 212.718 82.664H205.166C202.478 82.664 200.558 83.1333 199.406 84.072C198.296 85.0107 197.742 86.184 197.742 87.592C197.742 89.0427 198.275 90.1947 199.342 91.048C200.451 91.8587 201.944 92.264 203.822 92.264ZM227.476 97V65.256H233.556L234.132 71.272C235.241 69.1813 236.777 67.5387 238.74 66.344C240.745 65.1067 243.156 64.488 245.972 64.488V71.592H244.116C242.238 71.592 240.553 71.912 239.06 72.552C237.609 73.1493 236.436 74.1947 235.54 75.688C234.686 77.1387 234.26 79.1653 234.26 81.768V97H227.476ZM265.377 97.768C262.305 97.768 259.596 97.0427 257.249 95.592C254.902 94.1413 253.068 92.1573 251.745 89.64C250.422 87.1227 249.761 84.264 249.761 81.064C249.761 77.864 250.422 75.0267 251.745 72.552C253.068 70.0347 254.902 68.072 257.249 66.664C259.638 65.2133 262.369 64.488 265.441 64.488C267.958 64.488 270.156 64.9787 272.033 65.96C273.953 66.9413 275.446 68.328 276.513 70.12V50.92H283.297V97H277.217L276.513 92.072C275.489 93.5653 274.081 94.888 272.289 96.04C270.497 97.192 268.193 97.768 265.377 97.768ZM266.593 91.88C269.494 91.88 271.862 90.8773 273.697 88.872C275.574 86.8667 276.513 84.2853 276.513 81.128C276.513 77.928 275.574 75.3467 273.697 73.384C271.862 71.3787 269.494 70.376 266.593 70.376C263.692 70.376 261.302 71.3787 259.425 73.384C257.548 75.3467 256.609 77.928 256.609 81.128C256.609 83.2187 257.036 85.0747 257.889 86.696C258.742 88.3173 259.916 89.5973 261.409 90.536C262.945 91.432 264.673 91.88 266.593 91.88ZM307.336 81.256V75.56H333.384V81.256H307.336ZM374.375 97.768C371.175 97.768 368.273 97.1493 365.671 95.912C363.111 94.632 361.063 92.6907 359.527 90.088C358.033 87.4853 357.286 84.1787 357.286 80.168V52.2H364.071V80.232C364.071 84.1573 365.009 87.0373 366.887 88.872C368.764 90.7067 371.303 91.624 374.503 91.624C377.66 91.624 380.177 90.7067 382.055 88.872C383.932 87.0373 384.871 84.1573 384.871 80.232V52.2H391.655V80.168C391.655 84.1787 390.865 87.4853 389.287 90.088C387.751 92.6907 385.66 94.632 383.015 95.912C380.412 97.1493 377.532 97.768 374.375 97.768Z" fill="black"/>
</svg>
